<svg width="6" height="12" viewBox="0 0 6 12" fill="none" xmlns="http://www.w3.org/2000/svg">
<path id="Vector" fill-rule="evenodd" clip-rule="evenodd" d="M0.125877 0.135578C0.165677 0.092602 0.212958 0.0585049 0.265012 0.0352401C0.317066 0.0119754 0.37287 0 0.429228 0C0.485585 0 0.541389 0.0119754 0.593443 0.0352401C0.645497 0.0585049 0.692779 0.092602 0.732579 0.135578L5.87412 5.67339C5.91402 5.71626 5.94568 5.76718 5.96728 5.82325C5.98888 5.87932 6 5.93942 6 6.00012C6 6.06082 5.98888 6.12093 5.96728 6.17699C5.94568 6.23306 5.91402 6.28398 5.87412 6.32685L0.732579 11.8647C0.652125 11.9513 0.543006 12 0.429228 12C0.315449 12 0.20633 11.9513 0.125877 11.8647C0.0454229 11.778 0.000224329 11.6605 0.000224329 11.5379C0.000224329 11.4154 0.0454229 11.2979 0.125877 11.2112L4.96493 6.00012L0.125877 0.78904C0.0859754 0.746172 0.0543181 0.695247 0.0327181 0.639181C0.0111181 0.583115 0 0.52301 0 0.462309C0 0.401608 0.0111181 0.341503 0.0327181 0.285438C0.0543181 0.229372 0.0859754 0.178446 0.125877 0.135578Z" fill="#212121"/>
</svg>
